<svg width="24" height="28" viewBox="0 0 24 28" fill="none" xmlns="http://www.w3.org/2000/svg">
    <path d="M2.66667 27.3333H21.3333C22.804 27.3333 24 26.1373 24 24.6667V10C24 9.64638 23.8595 9.30724 23.6095 9.05719C23.3594 8.80714 23.0203 8.66667 22.6667 8.66667H18.6667V7.33333C18.6667 3.65733 15.676 0.666668 12 0.666668C8.324 0.666668 5.33333 3.65733 5.33333 7.33333V8.66667H1.33333C0.979711 8.66667 0.640573 8.80714 0.390524 9.05719C0.140476 9.30724 0 9.64638 0 10V24.6667C0 26.1373 1.196 27.3333 2.66667 27.3333ZM8 7.33333C8 5.128 9.79467 3.33333 12 3.33333C14.2053 3.33333 16 5.128 16 7.33333V8.66667H8V7.33333ZM2.66667 11.3333H5.33333V14H8V11.3333H16V14H18.6667V11.3333H21.3333L21.336 24.6667H2.66667V11.3333Z" fill="#748077"/>
</svg>
