<svg width="59" height="40" viewBox="0 0 59 40" fill="none" xmlns="http://www.w3.org/2000/svg">
    <path fill-rule="evenodd" clip-rule="evenodd" d="M59 40L44.2501 24.8649L29.5 40L14.7501 24.8649L-7.62939e-06 40L-4.13248e-06 -1.34325e-06L59 3.8147e-06L59 40Z" fill="#FFF500"/>
    <path d="M12.1399 12.5019L12.1399 14.4068L6.24645 14.4068L6.24645 12.5019L12.1399 12.5019ZM14.2711 19.9998L14.2711 18.2867L18.8158 13.8315C19.2505 13.3926 19.6127 13.0027 19.9025 12.6617C20.1923 12.3208 20.4096 11.9906 20.5545 11.671C20.6994 11.3514 20.7718 11.0105 20.7718 10.6482C20.7718 10.2349 20.678 9.8812 20.4905 9.58717C20.303 9.28887 20.0452 9.05876 19.7171 8.89683C19.389 8.7349 19.0161 8.65393 18.5985 8.65393C18.1681 8.65393 17.791 8.74342 17.4671 8.9224C17.1432 9.09711 16.8918 9.3464 16.7128 9.67027C16.5381 9.99413 16.4508 10.3798 16.4508 10.8272L14.1944 10.8272C14.1944 9.99626 14.384 9.27396 14.7633 8.66032C15.1425 8.04668 15.6646 7.57154 16.3293 7.2349C16.9984 6.89825 17.7654 6.72992 18.6305 6.72992C19.5083 6.72992 20.2796 6.89399 20.9444 7.22211C21.6092 7.55024 22.1248 7.99981 22.4913 8.57083C22.862 9.14186 23.0474 9.79385 23.0474 10.5268C23.0474 11.0169 22.9536 11.4984 22.7661 11.9714C22.5786 12.4444 22.2484 12.9686 21.7753 13.5438C21.3066 14.1191 20.6482 14.8159 19.8002 15.634L17.5438 17.9288L17.5438 18.0183L23.2455 18.0183L23.2455 19.9998L14.2711 19.9998ZM30.4696 20.2491C29.417 20.2491 28.5136 19.9828 27.7593 19.4501C27.0093 18.9132 26.4319 18.1397 26.0271 17.1298C25.6265 16.1156 25.4262 14.8947 25.4262 13.4671C25.4305 12.0396 25.6329 10.8251 26.0335 9.82368C26.4383 8.81799 27.0157 8.05095 27.7657 7.52254C28.52 6.99413 29.4213 6.72993 30.4696 6.72993C31.5178 6.72993 32.4191 6.99413 33.1734 7.52254C33.9276 8.05095 34.5051 8.818 34.9056 9.82368C35.3105 10.8294 35.5129 12.0438 35.5129 13.4671C35.5129 14.899 35.3105 16.122 34.9056 17.1362C34.5051 18.1461 33.9276 18.9174 33.1734 19.4501C32.4234 19.9828 31.5221 20.2491 30.4696 20.2491ZM30.4696 18.2484C31.2877 18.2484 31.9333 17.8457 32.4063 17.0403C32.8836 16.2306 33.1223 15.0396 33.1223 13.4671C33.1223 12.4274 33.0136 11.5538 32.7963 10.8464C32.5789 10.139 32.2721 9.60635 31.8758 9.24839C31.4795 8.88618 31.0107 8.70507 30.4696 8.70507C29.6556 8.70507 29.0122 9.1099 28.5392 9.91956C28.0661 10.725 27.8275 11.9075 27.8232 13.4671C27.819 14.5112 27.9234 15.389 28.1365 16.1007C28.3538 16.8123 28.6606 17.3492 29.0569 17.7115C29.4532 18.0694 29.9241 18.2484 30.4696 18.2484ZM44.8159 17.5453L44.8159 16.8549C44.8159 16.3478 44.9225 15.8812 45.1355 15.4551C45.3529 15.0289 45.6682 14.6859 46.0815 14.426C46.4949 14.166 46.9956 14.036 47.5837 14.036C48.1888 14.036 48.6959 14.166 49.105 14.426C49.5141 14.6816 49.823 15.0225 50.0318 15.4487C50.2449 15.8748 50.3514 16.3436 50.3514 16.8549L50.3514 17.5453C50.3514 18.0524 50.2449 18.519 50.0318 18.9451C49.8188 19.3713 49.5056 19.7143 49.0922 19.9742C48.6831 20.2342 48.1803 20.3642 47.5837 20.3642C46.9871 20.3642 46.4821 20.2342 46.0688 19.9742C45.6554 19.7143 45.3422 19.3713 45.1291 18.9451C44.9203 18.519 44.8159 18.0524 44.8159 17.5453ZM46.4842 16.8549L46.4842 17.5453C46.4842 17.8819 46.5652 18.1909 46.7271 18.4721C46.8891 18.7534 47.1746 18.894 47.5837 18.894C47.997 18.894 48.2804 18.7555 48.4338 18.4785C48.5915 18.1973 48.6703 17.8862 48.6703 17.5453L48.6703 16.8549C48.6703 16.514 48.5958 16.2029 48.4466 15.9217C48.2975 15.6362 48.0098 15.4934 47.5837 15.4934C47.1831 15.4934 46.8997 15.6362 46.7335 15.9217C46.5673 16.2029 46.4842 16.514 46.4842 16.8549ZM38.1618 10.0538L38.1618 9.36345C38.1618 8.85209 38.2705 8.38334 38.4878 7.9572C38.7051 7.53106 39.0205 7.19015 39.4338 6.93447C39.8472 6.67453 40.3479 6.54456 40.936 6.54456C41.5368 6.54456 42.0418 6.67453 42.4509 6.93447C42.8642 7.19016 43.1753 7.53106 43.3841 7.9572C43.5929 8.38334 43.6973 8.85209 43.6973 9.36345L43.6973 10.0538C43.6973 10.5652 43.5908 11.0339 43.3777 11.46C43.1689 11.8819 42.8578 12.2207 42.4445 12.4764C42.0311 12.7321 41.5283 12.8599 40.936 12.8599C40.3351 12.8599 39.828 12.7321 39.4146 12.4764C39.0056 12.2207 38.6945 11.8798 38.4814 11.4536C38.2683 11.0275 38.1618 10.5609 38.1618 10.0538ZM39.8429 9.36345L39.8429 10.0538C39.8429 10.3947 39.9217 10.7058 40.0794 10.987C40.2413 11.264 40.5269 11.4025 40.936 11.4025C41.345 11.4025 41.6263 11.264 41.7797 10.987C41.9374 10.7058 42.0162 10.3947 42.0162 10.0538L42.0162 9.36345C42.0162 9.02254 41.9416 8.71146 41.7925 8.43021C41.6433 8.1447 41.3578 8.00195 40.936 8.00195C40.5311 8.00195 40.2477 8.1447 40.0858 8.43021C39.9239 8.71572 39.8429 9.0268 39.8429 9.36345ZM38.8905 19.9998L47.8905 6.90891L49.4885 6.90891L40.4885 19.9998L38.8905 19.9998Z" fill="#2F2F2F"/>
</svg>
