<svg width="40" height="28" viewBox="0 0 40 28" fill="none" xmlns="http://www.w3.org/2000/svg">
    <path fill-rule="evenodd" clip-rule="evenodd" d="M40 27.0968L30.0001 16.844L20 27.0968L10.0001 16.844L0 27.0968L2.36041e-06 2.31934e-05L40 2.67029e-05L40 27.0968Z" fill="#FFF500"/>
    <path d="M9.79545 4.27273L11.3892 7.02983H11.4574L13.0682 4.27273H15.429L12.7955 8.63636L15.5142 13H13.0938L11.4574 10.2131H11.3892L9.75284 13H7.34943L10.0554 8.63636L7.41761 4.27273H9.79545ZM16.6399 4.27273H18.745V9.30114H18.8174L22.2521 4.27273H24.0674V13H21.9581V7.96307H21.9027L18.4254 13H16.6399V4.27273ZM25.2283 5.9858V4.27273H32.6047V5.9858H29.9584V13H27.8788V5.9858H25.2283Z" fill="#2F2F2F"/>
</svg>
