<svg width="79" height="21" viewBox="0 0 79 21" fill="none" xmlns="http://www.w3.org/2000/svg">
    <path d="M5.99858 5.52329L7.89062 9.98493H7.9929L11.3935 5.52329H14.6087L9.53977 12.0687L12.5249 18.6142H9.39915L7.45597 14.1462H7.35369L3.92756 18.6142H0.699574L5.89631 12.0687L2.94957 5.52329H5.99858ZM16.5401 5.52329H19.3014L17.9336 13.7562H18.0486L25.0671 5.52329H27.4897L25.3164 18.6142H22.5486L23.9165 10.3748H23.8206L16.7638 18.6142H14.3668L16.5401 5.52329ZM29.0743 7.80525L29.4578 5.52329H40.2093L39.8257 7.80525H35.8179L34.0281 18.6142H31.2924L33.0821 7.80525H29.0743Z" fill="#FFF500"/>
    <path d="M44.8107 11.3522H41.8003L41.4371 13.5428H44.3849L44.8107 11.3522Z" fill="#FFF500"/>
    <path fill-rule="evenodd" clip-rule="evenodd" d="M53.2511 7.79992L47.0174 0L44.8107 11.3522H47.7844L47.4372 13.5428H44.3849L43.0104 20.6142H74.0104L78.0174 0L68.7511 7.79992L62.5174 0L53.2511 7.79992Z" fill="#FFF500"/>
    <path d="M44.8107 11.3522L44.3849 13.5428H47.4372L47.7844 11.3522H44.8107Z" fill="#2F2F2F"/>
</svg>
